# xmcd
#
# Track frame offsets:
#  150
#  11783
#  22203
#  33438
#  42348
#  54009
#  65454
#  78466
#  88213
#  100410
#  112398
#
# Disc length: 1674 seconds
#
# Revision: 0
# Processed by: cddbd v1.5.1PL0 Copyright (c) Steve Scherf et al.
# Submitted via: Collectorz.com Music Collector 6.9
#
DISCID=9506880b
DTITLE=Riley, Jeannie C. - Country Girl
DYEAR=1900
DGENRE=Country
TTITLE0=Country Girl
TTITLE1=A Change Of Heart
TTITLE2=Am I That Easy To Forget
TTITLE3=That's A No No
TTITLE4=We Were Raised On Love
TTITLE5=I Almost Called Your Name
TTITLE6=Darling Days
TTITLE7=Wish You Were Here
TTITLE8=Your Old Love Letters
TTITLE9=I Love Him
TTITLE10=Wherever You Are
EXTD=
EXTT0=
EXTT1=
EXTT2=
EXTT3=
EXTT4=
EXTT5=
EXTT6=
EXTT7=
EXTT8=
EXTT9=
EXTT10=
PLAYORDER=
